<svg width="139" height="32" viewBox="0 0 139 32" fill="none" xmlns="http://www.w3.org/2000/svg">
<path d="M3.26725 11.5873L5.7262 9.33048V23.1073L3.26725 20.9852V11.5873ZM28.2273 9.09469L26.6778 7.17469L20.5473 12.0589H15.4609V2.05469H13.002V14.5178H21.423L28.2273 9.09469ZM25.0946 5.72627L23.0399 4.21048L20.2778 6.46732V2.99785L17.8188 2.35785V10.0042H19.8399L25.0946 5.72627ZM8.08409 28.1936L10.543 26.0378V6.16416L8.08409 4.00837V28.1936ZM30.1809 13.7094L28.5978 11.7894L23.5451 15.9663L28.5978 20.1431L30.1809 18.2231L27.4525 15.9663L30.1809 13.7094ZM12.9683 17.4484V29.9115H15.4273V19.9073H20.5473L26.6778 24.7915L28.2273 22.8715L21.3894 17.4484H12.9683ZM17.8188 22.2989V29.9452L20.2778 29.3052V25.8357L23.0399 28.0926L25.0946 26.5768L19.8062 22.2652L17.8188 22.2989Z" fill="#FFC700"></path>
<path fill-rule="evenodd" clip-rule="evenodd" d="M59.8905 16.9432V20.6147H69.8611V22.9389H57.1958V9.06105H69.5916L68.2105 11.3853H59.9242V14.6189H68.2442L66.8632 16.9432H59.8905ZM75.6884 16.9432H82.6274L84.0084 14.6189H75.6884V11.3853H83.9747L85.3558 9.06105H72.96V22.9389H85.6253V20.6147H75.6547V16.9432M108.328 16.9432H115.267L116.648 14.6189H108.328V11.3853H116.615L117.996 9.06105H105.6V22.9389H118.265V20.6147H108.295V16.9432M54.1642 9.06105H50.5937L43.6547 16L50.5937 22.9389H54.1642L47.2253 16C48.4042 14.7874 52.48 10.7116 54.1642 9.06105ZM39.9158 22.9389H42.6105V9.06105H39.9158V22.9389ZM131.571 17.28C133.625 17.1789 135.444 15.7642 135.444 13.2042C135.444 9.80211 133.086 9.06105 129.785 9.06105H121.432V22.9389H124.126V11.3179H129.347C131.571 11.3179 132.682 11.6547 132.682 13.2716C132.682 14.9221 131.571 15.2253 129.347 15.2253H126.518L125.171 17.4821H128.371L132.413 22.9389H135.747L131.571 17.28ZM96.5053 9.06105H88.7579V22.9389H91.4526V11.3853H97.0779C98.6274 11.3853 99.9747 11.52 99.9747 13.3053C99.9747 15.0905 98.6274 15.2253 97.0779 15.2253H93.8779L92.4968 17.5495H96.5053C98.8632 17.5495 102.703 17.5495 102.703 13.3053C102.703 9.06105 98.8632 9.06105 96.5053 9.06105ZM31.9663 16C31.9663 24.8253 24.7916 32 15.9663 32C7.14105 31.9663 0 24.8253 0 16C0 7.17474 7.14105 0 16 0C24.8253 0 31.9663 7.17474 31.9663 16ZM17.8189 10.0379H19.84L25.0946 5.72627L23.0399 4.21048L20.2778 6.46732V2.99785L17.8188 2.35785L17.8189 10.0379ZM12.9684 14.5179H21.3895L28.1937 9.09474L26.6442 7.17474L20.5473 12.0589H15.4609V2.05469H13.002V14.5178L12.9684 14.5179ZM5.7262 9.33048L3.26725 11.5873V20.9852L5.72632 23.0737L5.7262 9.33048ZM10.5768 6.16421L8.08409 4.00837V28.1936L10.543 26.0378V6.16416L10.5768 6.16421ZM25.0947 26.6105L19.8062 22.2652L17.7853 22.2653V29.9116L20.2442 29.2716V25.8358L23.0063 28.0926L25.0947 26.6105ZM28.2273 22.8715L21.3894 17.4484H12.9683V29.9115H15.4273V19.9073H20.5473L26.6778 24.7915L28.2273 22.8715ZM30.1811 18.2568L27.4526 16L30.1811 13.7432L28.5979 11.8232L23.5453 16L28.5979 20.1768L30.1811 18.2568ZM137.566 6.60211C137.701 6.60211 137.802 6.53474 137.903 6.50105C138.004 6.43368 138.038 6.33263 138.038 6.1979C138.038 6.06316 137.971 5.92842 137.903 5.86105C137.802 5.79368 137.634 5.76 137.432 5.76H136.758V7.34316H137.027V6.66947H137.331L137.802 7.34316H138.105L137.566 6.60211ZM137.465 6.43368H136.994V5.92842H137.499C137.533 5.92842 137.6 5.96211 137.634 5.96211C137.667 5.99579 137.701 5.99579 137.735 6.02947C137.768 6.06316 137.768 6.09684 137.768 6.16421C137.768 6.23158 137.768 6.26526 137.735 6.29895C137.701 6.33263 137.667 6.36632 137.634 6.36632C137.566 6.4 137.499 6.43368 137.465 6.43368ZM138.577 6.50105C138.577 6.29895 138.543 6.13053 138.476 5.96211C138.408 5.79368 138.307 5.65895 138.173 5.52421C138.038 5.38947 137.903 5.32211 137.735 5.25474C137.566 5.18737 137.398 5.15368 137.229 5.15368C137.061 5.15368 136.859 5.18737 136.724 5.25474C136.556 5.32211 136.421 5.42316 136.286 5.52421C136.152 5.65895 136.051 5.79368 135.983 5.96211C135.916 6.13053 135.882 6.29895 135.882 6.50105C135.882 6.70316 135.916 6.87158 135.983 7.04C136.051 7.20842 136.152 7.34316 136.286 7.4779C136.421 7.61263 136.556 7.68 136.724 7.74737C136.893 7.81474 137.061 7.84842 137.229 7.84842C137.398 7.84842 137.6 7.81474 137.735 7.74737C137.903 7.68 138.038 7.57895 138.173 7.4779C138.307 7.34316 138.408 7.20842 138.476 7.04C138.543 6.87158 138.577 6.70316 138.577 6.50105ZM138.341 6.50105C138.341 6.66947 138.307 6.80421 138.24 6.97263C138.173 7.10737 138.105 7.24211 138.004 7.34316C137.903 7.44421 137.802 7.51158 137.667 7.57895C137.533 7.64632 137.398 7.68 137.229 7.68C137.061 7.68 136.926 7.64632 136.792 7.57895C136.657 7.51158 136.556 7.44421 136.455 7.34316C136.354 7.24211 136.286 7.10737 136.219 6.97263C136.152 6.83789 136.118 6.66947 136.118 6.50105C136.118 6.33263 136.152 6.1979 136.219 6.06316C136.286 5.92842 136.354 5.79368 136.455 5.69263C136.556 5.59158 136.657 5.52421 136.792 5.45684C136.926 5.38947 137.061 5.35579 137.229 5.35579C137.398 5.35579 137.533 5.38947 137.667 5.45684C137.802 5.52421 137.903 5.59158 138.004 5.69263C138.105 5.79368 138.173 5.92842 138.24 6.06316C138.307 6.1979 138.341 6.36632 138.341 6.50105Z" fill="black"></path>
</svg>