<svg width="113" height="24" viewBox="0 0 113 24" fill="none" xmlns="http://www.w3.org/2000/svg">
<path d="M20.9284 4.96777H9.92578V8.0292H20.9284V19.0318H23.9898V8.0292V4.96777H20.9284Z" fill="#214F70"></path>
<path d="M8.02655 15.977V4.97461H4.96484V15.977V19.0387H8.02655H19.0289V15.977H8.02655Z" fill="#214F70"></path>
<path d="M3.06142 20.9386V4.96094H0V20.9386V24H3.06142H28.9573V20.9386H3.06142Z" fill="#062F49"></path>
<path d="M0 0V3.06142H25.8956V19.0391H28.9573V3.06142V0.956677V0H0Z" fill="#062F49"></path>
<path d="M10.979 9.30078L9.21875 14.6997H12.7393L10.979 9.30078Z" fill="#E26D26"></path>
<path d="M17.9751 9.30078L16.2148 14.6997H19.7354L17.9751 9.30078Z" fill="#E26D26"></path>
<path d="M14.4778 13.1124L16.5106 9.5918H12.4453L14.4778 13.1124Z" fill="#E26D26"></path>
<path d="M87.1612 2.92781C87.5143 2.92781 87.8393 2.79309 88.1368 2.52336C88.4337 2.25419 88.5832 1.9053 88.5832 1.47779C88.5832 1.05029 88.4337 0.696952 88.1368 0.41806C87.8393 0.139724 87.514 0 87.1612 0C86.7887 0 86.4543 0.139724 86.1573 0.41806C85.8598 0.696952 85.7109 1.05057 85.7109 1.47779C85.7109 1.90502 85.8598 2.25419 86.1573 2.52336C86.4543 2.79309 86.7887 2.92781 87.1612 2.92781Z" fill="#062F49"></path>
<path d="M85.906 5.49227V5.49338L84.7876 5.47949L84.8654 7.54563C84.8654 7.54563 85.3813 7.56174 85.906 7.57868V15.8918C85.906 16.6727 85.776 17.3416 85.516 17.8996C85.2549 18.4571 83.2601 22.4277 82.7773 22.7997C83.0373 23.0972 83.7165 23.7019 83.9771 23.9994C84.6835 23.46 87.2443 19.7908 87.6346 18.9452C88.0252 18.0991 88.2202 17.1091 88.2202 15.9757V5.52005C87.8296 5.52005 87.4438 5.51588 87.0632 5.50616C86.6821 5.49699 86.2963 5.49227 85.9057 5.49227H85.906Z" fill="#062F49"></path>
<path d="M37.0195 5.43659H38.9376V5.67298C38.9729 6.09354 39.0034 6.47438 39.0298 6.81605C39.0559 7.15772 39.0862 7.53855 39.1218 7.95912C39.4896 7.11827 40.0454 6.45743 40.7904 5.9752C41.5346 5.49381 42.406 5.23575 43.4046 5.2002C44.368 5.2002 45.143 5.44131 45.7299 5.9227C46.3166 6.40465 46.663 7.03966 46.7677 7.828C47.153 7.02216 47.7135 6.39188 48.4494 5.93604C49.1852 5.48075 50.0344 5.23575 50.998 5.2002C52.0314 5.2002 52.8458 5.47214 53.4417 6.01493C54.0369 6.55799 54.3522 7.26744 54.3875 8.14328V15.29H52.2066V9.14163C52.1711 8.66912 52.0005 8.26134 51.6944 7.91995C51.3875 7.57856 50.9016 7.39022 50.2361 7.35494C49.7802 7.35494 49.3469 7.43355 48.9355 7.59133C48.5238 7.74911 48.1605 7.96828 47.8452 8.24856C47.5299 8.52884 47.2758 8.8619 47.083 9.24663C46.8902 9.63219 46.7941 10.0528 46.7941 10.508V15.29H44.6132V9.14163C44.578 8.66912 44.4071 8.26134 44.101 7.91995C43.7943 7.57856 43.3082 7.39022 42.6427 7.35494C42.1871 7.35494 41.7535 7.43355 41.3421 7.59133C40.9304 7.74911 40.5671 7.96828 40.2518 8.24856C39.9365 8.52884 39.6823 8.8619 39.4898 9.24663C39.2968 9.63219 39.2007 10.0528 39.2007 10.508V15.29H37.0198V5.43659H37.0195Z" fill="#062F49"></path>
<path d="M57.3828 10.3493C57.3828 9.64899 57.5181 8.98287 57.79 8.35259C58.0614 7.72202 58.4339 7.17452 58.907 6.71007C59.3801 6.24617 59.9359 5.87812 60.5756 5.60672C61.2145 5.33533 61.9023 5.19922 62.6381 5.19922C63.374 5.19922 64.0654 5.33533 64.7137 5.60672C65.3615 5.87812 65.9224 6.24617 66.3951 6.71007C66.8682 7.17424 67.2401 7.72175 67.5121 8.35259C67.7835 8.98287 67.9193 9.64899 67.9193 10.3493C67.9193 11.0496 67.7835 11.7379 67.5121 12.3593C67.2401 12.9815 66.8682 13.5288 66.3951 14.0018C65.9226 14.4749 65.3615 14.8471 64.7137 15.1182C64.0654 15.3896 63.3737 15.5254 62.6381 15.5254C61.9026 15.5254 61.2148 15.3896 60.5756 15.1182C59.9359 14.8471 59.3801 14.4746 58.907 14.0018C58.4339 13.5288 58.0617 12.9818 57.79 12.3593C57.5181 11.7382 57.3828 11.0676 57.3828 10.3493ZM59.5637 10.3757C59.5637 10.7962 59.6426 11.1901 59.8001 11.5579C59.9578 11.9257 60.172 12.2457 60.444 12.5168C60.7153 12.7887 61.0354 13.0029 61.4031 13.1607C61.7709 13.3185 62.1651 13.3971 62.5854 13.3971C63.0057 13.3971 63.3998 13.3185 63.7676 13.1607C64.1354 13.0029 64.4596 12.7887 64.7396 12.5168C65.0198 12.2457 65.239 11.926 65.3968 11.5579C65.5546 11.1901 65.6332 10.7959 65.6332 10.3757C65.6332 9.95538 65.5546 9.56093 65.3968 9.19315C65.239 8.82565 65.0198 8.50148 64.7396 8.2212C64.4593 7.94147 64.1354 7.72202 63.7676 7.56452C63.3998 7.40674 63.0057 7.32785 62.5854 7.32785C62.1651 7.32785 61.7709 7.40674 61.4031 7.56452C61.0354 7.7223 60.7153 7.94147 60.444 8.2212C60.172 8.50176 59.9578 8.82565 59.8001 9.19315C59.6428 9.56093 59.5637 9.95538 59.5637 10.3757Z" fill="#062F49"></path>
<path d="M71.7266 5.43659H73.6446V5.67298C73.6799 6.09354 73.7105 6.47438 73.7369 6.81605C73.763 7.15772 73.7933 7.53855 73.8288 7.95912C74.1788 7.11827 74.7438 6.44826 75.5235 5.94909C76.3027 5.44992 77.1655 5.2002 78.1116 5.2002C79.145 5.2002 79.9597 5.47214 80.5553 6.01493C81.1508 6.55799 81.4661 7.26744 81.5011 8.14328V15.29H79.3203V9.14163C79.285 8.66912 79.1142 8.26134 78.808 7.91995C78.5014 7.57856 78.0152 7.39022 77.3497 7.35494C76.8941 7.35494 76.4605 7.43355 76.0491 7.59133C75.6374 7.74911 75.2741 7.96828 74.9588 8.24856C74.6435 8.52884 74.3894 8.8619 74.1969 9.24663C74.0038 9.63219 73.9077 10.0528 73.9077 10.508V15.29H71.7268V5.43659H71.7266Z" fill="#062F49"></path>
<path d="M101.735 15.5258H99.5546V13.9494L99.6332 12.7672C99.2827 13.6077 98.718 14.2777 97.9385 14.7772C97.1588 15.2764 96.2965 15.5258 95.3504 15.5258C94.3168 15.5258 93.5021 15.2547 92.9068 14.7114C92.3109 14.1688 91.9959 13.4591 91.9609 12.583V5.43652H94.1418V11.5846C94.1771 12.0577 94.3474 12.4649 94.654 12.8066C94.9604 13.148 95.4465 13.3366 96.1124 13.3716C96.5677 13.3716 97.0013 13.2927 97.4129 13.1352C97.8243 12.9774 98.188 12.7586 98.5032 12.478C98.8185 12.1983 99.0724 11.8652 99.2655 11.4794C99.458 11.0944 99.5544 10.6741 99.5544 10.2185V5.43652H101.735V15.5258H101.735Z" fill="#062F49"></path>
<path d="M112.244 7.35439C111.175 7.35439 110.317 7.65245 109.669 8.24773C109.021 8.84329 108.696 9.59663 108.696 10.5072V15.2892H106.516V5.43659H108.434V5.67298C108.469 6.09354 108.5 6.47438 108.526 6.81605C108.552 7.15772 108.582 7.53855 108.618 7.95912C108.828 7.52161 109.095 7.13161 109.419 6.78994C109.743 6.44826 110.085 6.15937 110.444 5.9227C110.803 5.68631 111.153 5.50714 111.495 5.38436C111.837 5.26186 112.139 5.2002 112.402 5.2002L112.244 7.35494V7.35439Z" fill="#062F49"></path>
<path d="M38.9509 22.2832L38.8961 22.5666H37.2539L37.7506 20.0049H38.0975L37.6559 22.2832H38.9506H38.9509Z" fill="#E26D26"></path>
<path d="M39.7117 21.6534C39.7044 21.6947 39.6989 21.7631 39.695 21.8589C39.695 22.0197 39.7355 22.1436 39.8161 22.2297C39.8967 22.3156 40.018 22.3586 40.1805 22.3586C40.2978 22.3586 40.4047 22.3297 40.5005 22.2717C40.5961 22.2134 40.6708 22.1339 40.7242 22.0336L40.975 22.1481C40.8867 22.307 40.7739 22.4225 40.6378 22.4956C40.5011 22.5681 40.3361 22.6045 40.1422 22.6045C39.8986 22.6045 39.7092 22.537 39.5739 22.4017C39.4386 22.267 39.3711 22.0764 39.3711 21.832C39.3711 21.5875 39.4141 21.372 39.5003 21.1756C39.5861 20.9828 39.7072 20.8325 39.8639 20.7253C40.02 20.6181 40.1958 20.5645 40.3908 20.5645C40.6397 20.5645 40.8331 20.6267 40.9708 20.7517C41.1092 20.8764 41.1783 21.0531 41.1783 21.2808C41.1783 21.4067 41.1639 21.5309 41.1347 21.6534H39.7111H39.7117ZM39.755 21.4025H40.8458L40.8531 21.2714C40.8531 21.1211 40.8142 21.0058 40.7361 20.9261C40.6575 20.8458 40.5453 20.8061 40.3986 20.8061C40.2364 20.8061 40.0994 20.8578 39.9889 20.9614C39.878 21.065 39.7997 21.212 39.755 21.4022V21.4025Z" fill="#E26D26"></path>
<path d="M42.078 23.3395C41.8727 23.3395 41.7111 23.3014 41.5916 23.225C41.4722 23.1486 41.3961 23.0339 41.3633 22.8811L41.66 22.8048C41.7008 22.995 41.8427 23.0903 42.0855 23.0903C42.2575 23.0903 42.3905 23.0459 42.4855 22.9567C42.58 22.8675 42.6469 22.7211 42.6858 22.5175C42.6952 22.4642 42.7055 22.4111 42.7166 22.3584C42.7277 22.3059 42.738 22.2534 42.7475 22.2014H42.7441C42.6702 22.3081 42.6041 22.3859 42.5461 22.4339C42.4877 22.4814 42.4222 22.5175 42.3502 22.5431C42.2783 22.5686 42.1958 22.5811 42.1022 22.5811C41.9166 22.5811 41.7672 22.5206 41.6541 22.3984C41.5405 22.2767 41.4838 22.115 41.4838 21.9139C41.4838 21.8059 41.4941 21.6911 41.515 21.57C41.5355 21.4489 41.565 21.332 41.6027 21.2192C41.6411 21.1064 41.6863 21.0089 41.7386 20.9264C41.8172 20.8025 41.913 20.7117 42.0258 20.6528C42.1386 20.5939 42.2719 20.5645 42.4258 20.5645C42.5797 20.5645 42.6964 20.5989 42.798 20.6681C42.8991 20.7372 42.9641 20.8264 42.9936 20.9353H42.9969C43.003 20.905 43.0122 20.865 43.0241 20.8145C43.0361 20.7639 43.0486 20.7175 43.0605 20.6745C43.073 20.6314 43.0805 20.6061 43.0844 20.5989H43.395L43.3605 20.7483L43.3058 21.0064L43.0136 22.5098C42.9552 22.8034 42.8511 23.0145 42.7008 23.1442C42.5502 23.2739 42.3433 23.3389 42.0791 23.3389L42.078 23.3395ZM41.8272 21.8886C41.8272 22.1892 41.9527 22.3398 42.203 22.3398C42.3341 22.3398 42.453 22.2914 42.5597 22.1959C42.6664 22.1014 42.7489 21.9709 42.8077 21.805C42.8666 21.6389 42.8961 21.4661 42.8961 21.287C42.8961 21.1356 42.8572 21.0172 42.7797 20.9331C42.7019 20.8489 42.5952 20.8067 42.4597 20.8067C42.3508 20.8067 42.26 20.8289 42.1869 20.8742C42.1144 20.9189 42.053 20.9889 42.0033 21.085C41.9705 21.1478 41.9405 21.2272 41.9141 21.3222C41.8877 21.4172 41.8663 21.515 41.8505 21.6159C41.8347 21.7167 41.8272 21.8075 41.8272 21.8886Z" fill="#E26D26"></path>
<path d="M45.1488 22.5861C45.0361 22.5861 44.9538 22.5628 44.9022 22.5161C44.8511 22.4698 44.8249 22.4 44.8249 22.3078C44.8249 22.2886 44.8263 22.2689 44.8288 22.2497C44.8311 22.23 44.833 22.2109 44.8344 22.1914H44.8233C44.7224 22.3442 44.6186 22.4514 44.5105 22.5123C44.4024 22.5736 44.2724 22.6039 44.1197 22.6039C43.9499 22.6039 43.8119 22.5531 43.706 22.4517C43.5997 22.3497 43.5469 22.22 43.5469 22.0625C43.5469 21.8381 43.6272 21.6686 43.788 21.5534C43.9485 21.4381 44.2044 21.3781 44.5561 21.3734L44.9777 21.3678C45.0008 21.2525 45.0122 21.1758 45.0122 21.137C45.0122 21.027 44.9802 20.9453 44.9158 20.8925C44.8519 20.8395 44.7624 20.8136 44.6486 20.8136C44.5044 20.8136 44.3949 20.8392 44.3213 20.8908C44.2477 20.9425 44.1941 21.0206 44.1613 21.1261L43.8377 21.0736C43.8924 20.8953 43.9872 20.7658 44.1224 20.6853C44.2572 20.6047 44.4391 20.5645 44.6669 20.5645C44.8738 20.5645 45.0377 20.6131 45.1586 20.71C45.2794 20.807 45.3394 20.937 45.3394 21.1008C45.3394 21.1806 45.328 21.2758 45.305 21.3864L45.1705 22.0734C45.1572 22.1339 45.1505 22.1872 45.1505 22.2334C45.1505 22.2795 45.163 22.3114 45.1877 22.3336C45.2125 22.3553 45.2491 22.3661 45.2977 22.3661C45.3327 22.3661 45.3694 22.362 45.4069 22.3534L45.3813 22.5573C45.3413 22.5667 45.3019 22.5739 45.263 22.5789C45.2241 22.5836 45.1861 22.5861 45.1486 22.5861H45.1488ZM43.8941 22.0481C43.8941 22.1389 43.9235 22.2128 43.9819 22.2695C44.0408 22.3267 44.1166 22.3553 44.2102 22.3553C44.328 22.3553 44.4338 22.3298 44.5286 22.2789C44.623 22.2289 44.7013 22.1636 44.7627 22.0825C44.8247 22.0011 44.8652 21.9139 44.8847 21.8206L44.9338 21.5936L44.5719 21.6009C44.4277 21.6042 44.3147 21.617 44.2327 21.6389C44.1513 21.6606 44.0872 21.6892 44.041 21.7242C43.9963 21.7584 43.9605 21.802 43.9338 21.8553C43.9069 21.9086 43.8938 21.9731 43.8938 22.0481H43.8941Z" fill="#E26D26"></path>
<path d="M46.4839 19.8691L45.9581 22.5675H45.6328L46.1564 19.8691H46.4837H46.4839Z" fill="#E26D26"></path>
<path d="M48.628 22.604C48.3258 22.604 48.0916 22.5507 47.9252 22.4432C47.7583 22.336 47.6547 22.1727 47.6133 21.9532L47.935 21.8857C47.9677 22.0424 48.0402 22.1557 48.1536 22.2257C48.2663 22.296 48.4327 22.331 48.6533 22.331C48.9189 22.331 49.113 22.2913 49.2355 22.2118C49.358 22.1324 49.4191 22.0107 49.4191 21.8474C49.4191 21.7663 49.4016 21.701 49.3661 21.6518C49.3311 21.6026 49.2708 21.5585 49.1864 21.5182C49.1436 21.4985 49.0861 21.4768 49.0136 21.4524C48.9405 21.4285 48.8522 21.4015 48.748 21.3726C48.5444 21.3168 48.3897 21.2582 48.2841 21.1965C48.1813 21.136 48.1033 21.0635 48.0508 20.9793C47.9977 20.8949 47.9713 20.7932 47.9713 20.6746C47.9713 20.5265 48.0136 20.3999 48.098 20.2943C48.1822 20.189 48.3016 20.1082 48.4569 20.0518C48.6122 19.9951 48.7952 19.9668 49.0061 19.9668C49.2727 19.9668 49.4866 20.0129 49.648 20.1051C49.8094 20.1974 49.9105 20.3318 49.9514 20.5087L49.6369 20.6012C49.5972 20.474 49.525 20.3801 49.4214 20.3196C49.318 20.259 49.1789 20.2287 49.0044 20.2287C48.7766 20.2287 48.6055 20.2646 48.4913 20.336C48.3775 20.4076 48.3205 20.5149 48.3205 20.6576C48.3205 20.7307 48.3358 20.7896 48.3675 20.8351C48.3991 20.8804 48.45 20.921 48.5202 20.956C48.5558 20.9729 48.608 20.9935 48.6786 21.0171C48.7491 21.0407 48.8369 21.0665 48.9422 21.0943C49.0608 21.1271 49.1627 21.1593 49.2477 21.1907C49.3322 21.2224 49.4011 21.2529 49.453 21.2832C49.5572 21.3438 49.6366 21.4176 49.6911 21.5043C49.7455 21.591 49.773 21.6979 49.773 21.8252C49.773 22.0749 49.6791 22.2668 49.4911 22.4018C49.3033 22.5363 49.0158 22.6032 48.6277 22.6032L48.628 22.604Z" fill="#E26D26"></path>
<path d="M50.4968 21.6534C50.4896 21.6947 50.484 21.7631 50.4801 21.8589C50.4801 22.0197 50.5207 22.1436 50.6013 22.2297C50.6818 22.3156 50.8032 22.3586 50.9657 22.3586C51.0829 22.3586 51.1899 22.3297 51.2857 22.2717C51.3813 22.2134 51.456 22.1339 51.5093 22.0336L51.7602 22.1481C51.6718 22.307 51.559 22.4225 51.4229 22.4956C51.2863 22.5681 51.1213 22.6045 50.9274 22.6045C50.6838 22.6045 50.4943 22.537 50.359 22.4017C50.2238 22.267 50.1562 22.0764 50.1562 21.832C50.1562 21.5875 50.1993 21.372 50.2854 21.1756C50.3713 20.9828 50.4924 20.8325 50.649 20.7253C50.8051 20.6181 50.981 20.5645 51.176 20.5645C51.4249 20.5645 51.6182 20.6267 51.756 20.7517C51.8943 20.8764 51.9635 21.0531 51.9635 21.2808C51.9635 21.4067 51.949 21.5309 51.9199 21.6534H50.4963H50.4968ZM50.5404 21.4025H51.6313L51.6385 21.2714C51.6385 21.1211 51.5996 21.0058 51.5215 20.9261C51.4429 20.8458 51.3307 20.8061 51.184 20.8061C51.0218 20.8061 50.8849 20.8578 50.7743 20.9614C50.6635 21.065 50.5851 21.212 50.5404 21.4022V21.4025Z" fill="#E26D26"></path>
<path d="M53.4428 20.8625C53.392 20.8467 53.3376 20.8386 53.2795 20.8386C53.1945 20.8386 53.1142 20.8695 53.0392 20.9303C52.9642 20.9917 52.8992 21.075 52.8445 21.1803C52.7903 21.2856 52.7506 21.4064 52.7262 21.5422L52.5264 22.5678H52.1992L52.4937 21.0589C52.5009 21.0161 52.5087 20.9745 52.5162 20.9325C52.5242 20.8906 52.532 20.8489 52.5392 20.8078C52.5453 20.7728 52.5506 20.7378 52.5562 20.7033C52.5617 20.6689 52.5667 20.6347 52.5714 20.6006H52.8809L52.8317 20.9078L52.8173 21.0025H52.8245C52.9042 20.8411 52.9834 20.7278 53.0606 20.6625C53.1384 20.5972 53.2278 20.5645 53.3298 20.5645C53.3831 20.5645 53.4406 20.5731 53.5026 20.59L53.4423 20.8628L53.4428 20.8625Z" fill="#E26D26"></path>
<path d="M55.4578 20.5996L54.3392 22.5669H53.9522L53.6211 20.5996H53.9611L54.1447 21.8799C54.1486 21.9063 54.1519 21.9371 54.1558 21.9716C54.1592 22.006 54.1636 22.0432 54.1678 22.0835C54.1717 22.1235 54.1758 22.1671 54.1792 22.2146L54.1864 22.3107L54.2339 22.2146C54.2617 22.1574 54.2897 22.1016 54.3175 22.0466C54.3453 21.991 54.3739 21.9368 54.4028 21.8835L55.1008 20.5999H55.4575L55.4578 20.5996Z" fill="#E26D26"></path>
<path d="M56.0839 20.6003L55.7003 22.5675H55.375L55.7564 20.6003H56.0836H56.0839ZM56.2261 19.8691L56.1642 20.1819H55.8369L55.8989 19.8691H56.2261Z" fill="#E26D26"></path>
<path d="M57.0316 22.3459C57.1566 22.3459 57.2625 22.3114 57.35 22.2414C57.4369 22.172 57.5061 22.0672 57.5575 21.9278L57.8408 22.017C57.693 22.4086 57.4208 22.6042 57.0244 22.6042C56.7919 22.6042 56.613 22.5384 56.488 22.4061C56.3633 22.2739 56.3008 22.0886 56.3008 21.8497C56.3008 21.6109 56.3452 21.3809 56.4338 21.1733C56.5208 20.965 56.6369 20.8114 56.7816 20.7125C56.9266 20.6139 57.1047 20.5645 57.3155 20.5645C57.5264 20.5645 57.6825 20.6161 57.8019 20.7189C57.9211 20.8222 57.9872 20.9631 57.9991 21.1428L57.6775 21.1881C57.6702 21.0708 57.6339 20.9803 57.5683 20.9161C57.503 20.8525 57.415 20.8208 57.3047 20.8208C57.1266 20.8208 56.9888 20.8764 56.8911 20.9872C56.7933 21.0978 56.7202 21.2692 56.6722 21.5006C56.6597 21.56 56.6508 21.6206 56.645 21.6814C56.6386 21.7428 56.6355 21.8022 56.6355 21.8606C56.6355 22.1842 56.7677 22.3459 57.0319 22.3459H57.0316Z" fill="#E26D26"></path>
<path d="M58.5437 21.6534C58.5365 21.6947 58.5309 21.7631 58.527 21.8589C58.527 22.0197 58.5676 22.1436 58.6481 22.2297C58.7287 22.3156 58.8501 22.3586 59.0126 22.3586C59.1298 22.3586 59.2367 22.3297 59.3326 22.2717C59.4281 22.2134 59.5029 22.1339 59.5562 22.0336L59.807 22.1481C59.7187 22.307 59.6059 22.4225 59.4698 22.4956C59.3331 22.5681 59.1681 22.6045 58.9742 22.6045C58.7306 22.6045 58.5412 22.537 58.4059 22.4017C58.2706 22.267 58.2031 22.0764 58.2031 21.832C58.2031 21.5875 58.2462 21.372 58.3323 21.1756C58.4181 20.9828 58.5392 20.8325 58.6959 20.7253C58.852 20.6181 59.0279 20.5645 59.2229 20.5645C59.4717 20.5645 59.6651 20.6267 59.8029 20.7517C59.9412 20.8764 60.0104 21.0531 60.0104 21.2808C60.0104 21.4067 59.9959 21.5309 59.9668 21.6534H58.5431H58.5437ZM58.5873 21.4025H59.6781L59.6854 21.2714C59.6854 21.1211 59.6465 21.0058 59.5684 20.9261C59.4898 20.8458 59.3776 20.8061 59.2309 20.8061C59.0687 20.8061 58.9317 20.8578 58.8212 20.9614C58.7104 21.065 58.632 21.212 58.5873 21.4022V21.4025Z" fill="#E26D26"></path>
<path d="M61.8353 21.9909C61.8353 22.1873 61.7603 22.3384 61.61 22.4445C61.4598 22.5503 61.2425 22.6034 60.9592 22.6034C60.7484 22.6034 60.5806 22.5678 60.4564 22.497C60.3323 22.4262 60.2453 22.3142 60.1953 22.1614L60.4628 22.0598C60.5025 22.1662 60.5648 22.2437 60.6489 22.2923C60.7334 22.3409 60.8464 22.3648 60.9881 22.3648C61.3412 22.3648 61.5173 22.2495 61.5173 22.0195C61.5173 21.9445 61.4862 21.8812 61.4248 21.8303C61.3617 21.7803 61.2306 21.725 61.0317 21.6631C60.8756 21.6111 60.7589 21.5611 60.6825 21.5136C60.6048 21.4653 60.5456 21.4086 60.5045 21.3439C60.4631 21.2789 60.4425 21.2036 60.4425 21.1173C60.4425 20.942 60.5125 20.8061 60.6534 20.7109C60.7937 20.6156 60.9923 20.5684 61.2478 20.5684C61.4625 20.5684 61.6303 20.6067 61.7506 20.6836C61.8714 20.7609 61.9453 20.877 61.9717 21.032L61.6756 21.0775C61.6487 20.9814 61.5984 20.9123 61.5245 20.87C61.4506 20.8278 61.3512 20.8064 61.2262 20.8064C61.0759 20.8064 60.9603 20.8303 60.8798 20.8781C60.7995 20.9259 60.7589 20.9936 60.7589 21.0809C60.7589 21.132 60.7717 21.1748 60.7973 21.2092C60.8225 21.2436 60.8595 21.275 60.9081 21.3025C60.9564 21.3303 61.067 21.3717 61.2389 21.4264C61.3942 21.4748 61.5103 21.5236 61.5881 21.5736C61.667 21.6231 61.7276 21.682 61.7709 21.7498C61.8142 21.8175 61.8353 21.8978 61.8353 21.99V21.9909Z" fill="#E26D26"></path>
<path d="M63.8265 21.5032L63.6209 22.5666H63.2734L63.7701 20.0049H64.8826C65.0682 20.0049 65.2282 20.0377 65.3626 20.1029C65.4799 20.1588 65.5712 20.236 65.6362 20.3346C65.7012 20.4335 65.7335 20.5477 65.7335 20.6774C65.7335 20.9052 65.6682 21.0863 65.5371 21.2193C65.406 21.353 65.2126 21.4371 64.9571 21.4718L65.4443 22.5666H65.0696L64.6279 21.5032H63.8259H63.8265ZM64.7171 21.2282C64.9368 21.2282 65.1021 21.1827 65.2137 21.0913C65.3251 20.9996 65.381 20.8707 65.381 20.7046C65.381 20.5688 65.3357 20.4649 65.2451 20.3918C65.1551 20.3193 65.0201 20.2829 64.8407 20.2829H64.0643L63.8807 21.2282H64.7168H64.7171Z" fill="#E26D26"></path>
<path d="M66.3484 21.6534C66.3411 21.6947 66.3356 21.7631 66.3317 21.8589C66.3317 22.0197 66.3723 22.1436 66.4528 22.2297C66.5334 22.3156 66.6548 22.3586 66.8173 22.3586C66.9345 22.3586 67.0414 22.3297 67.1373 22.2717C67.2328 22.2134 67.3075 22.1339 67.3609 22.0336L67.6117 22.1481C67.5234 22.307 67.4106 22.4225 67.2745 22.4956C67.1378 22.5681 66.9728 22.6045 66.7789 22.6045C66.5353 22.6045 66.3459 22.537 66.2106 22.4017C66.0753 22.267 66.0078 22.0764 66.0078 21.832C66.0078 21.5875 66.0509 21.372 66.137 21.1756C66.2228 20.9828 66.3439 20.8325 66.5006 20.7253C66.6567 20.6181 66.8325 20.5645 67.0275 20.5645C67.2764 20.5645 67.4698 20.6267 67.6075 20.7517C67.7459 20.8764 67.8151 21.0531 67.8151 21.2808C67.8151 21.4067 67.8006 21.5309 67.7714 21.6534H66.3478H66.3484ZM66.3917 21.4025H67.4825L67.4898 21.2714C67.4898 21.1211 67.4509 21.0058 67.3728 20.9261C67.2942 20.8458 67.182 20.8061 67.0353 20.8061C66.8731 20.8061 66.7362 20.8578 66.6256 20.9614C66.5148 21.065 66.4364 21.212 66.3917 21.4022V21.4025Z" fill="#E26D26"></path>
<path d="M68.7211 22.6058C68.5308 22.6058 68.3822 22.5486 68.2764 22.4339C68.17 22.3194 68.1172 22.1619 68.1172 21.9619C68.1172 21.7175 68.1547 21.4783 68.23 21.2458C68.305 21.0142 68.41 20.843 68.5444 20.7319C68.6791 20.6211 68.8514 20.5655 69.0608 20.5655C69.2103 20.5655 69.3314 20.5972 69.4258 20.6603C69.5197 20.723 69.5858 20.8117 69.6247 20.9258H69.6336C69.6422 20.8758 69.6505 20.8269 69.6591 20.7778C69.6678 20.7286 69.6761 20.6797 69.6847 20.6314L69.8336 19.8691H70.1608L69.7153 22.1622C69.6983 22.2472 69.6841 22.3236 69.6725 22.3914C69.6608 22.4592 69.6519 22.5181 69.6461 22.5675H69.3333C69.3333 22.5056 69.3461 22.4086 69.3716 22.2769H69.3628C69.2739 22.3917 69.1811 22.4753 69.0825 22.5278C68.9844 22.5797 68.8639 22.6058 68.7211 22.6058ZM68.8155 22.3528C69.048 22.3528 69.2236 22.2542 69.3408 22.0567C69.3808 21.9914 69.415 21.9133 69.4436 21.8228C69.4722 21.7328 69.4939 21.64 69.5094 21.5458C69.5244 21.4511 69.5319 21.3653 69.5319 21.2878C69.5319 21.1364 69.4936 21.018 69.4164 20.9339C69.3394 20.8497 69.2325 20.8075 69.0955 20.8075C68.9478 20.8075 68.8308 20.8511 68.7447 20.9386C68.6875 20.9967 68.6375 21.0819 68.5944 21.1947C68.5516 21.3078 68.518 21.428 68.4947 21.5558C68.4714 21.6839 68.4591 21.8 68.4591 21.9042C68.4591 22.0531 68.4878 22.1653 68.5444 22.2406C68.6016 22.3156 68.6916 22.3533 68.8155 22.3533V22.3528Z" fill="#E26D26"></path>
<path d="M70.5671 21.6534C70.5599 21.6947 70.5543 21.7631 70.5505 21.8589C70.5505 22.0197 70.591 22.1436 70.6716 22.2297C70.7521 22.3156 70.8735 22.3586 71.036 22.3586C71.1532 22.3586 71.2602 22.3297 71.356 22.2717C71.4516 22.2134 71.5263 22.1339 71.5796 22.0336L71.8305 22.1481C71.7421 22.307 71.6294 22.4225 71.4932 22.4956C71.3566 22.5681 71.1916 22.6045 70.9977 22.6045C70.7541 22.6045 70.5646 22.537 70.4293 22.4017C70.2941 22.267 70.2266 22.0764 70.2266 21.832C70.2266 21.5875 70.2696 21.372 70.3557 21.1756C70.4416 20.9828 70.5627 20.8325 70.7193 20.7253C70.8755 20.6181 71.0513 20.5645 71.2463 20.5645C71.4952 20.5645 71.6885 20.6267 71.8263 20.7517C71.9646 20.8764 72.0338 21.0531 72.0338 21.2808C72.0338 21.4067 72.0194 21.5309 71.9902 21.6534H70.5666H70.5671ZM70.6107 21.4025H71.7016L71.7088 21.2714C71.7088 21.1211 71.6699 21.0058 71.5919 20.9261C71.5132 20.8458 71.401 20.8061 71.2544 20.8061C71.0921 20.8061 70.9552 20.8578 70.8446 20.9614C70.7338 21.065 70.6555 21.212 70.6107 21.4022V21.4025Z" fill="#E26D26"></path>
<path d="M72.9996 20.838L72.6632 22.5672H72.3359L72.6723 20.838H72.3962L72.4432 20.6H72.7198L72.7618 20.378C72.7882 20.245 72.8254 20.1428 72.8726 20.073C72.9187 20.0047 72.979 19.9539 73.0534 19.9203C73.1282 19.8861 73.2243 19.8691 73.3415 19.8691C73.4323 19.8691 73.5076 19.8764 73.5668 19.8908L73.5198 20.14L73.479 20.1336C73.4648 20.1319 73.4512 20.1303 73.4382 20.1294C73.4248 20.128 73.4109 20.1272 73.3962 20.1264C73.3818 20.1258 73.3676 20.1255 73.3543 20.1255C73.2765 20.1255 73.2176 20.1453 73.1782 20.185C73.1382 20.2241 73.1059 20.3041 73.0818 20.4239L73.0473 20.6H73.4309L73.3834 20.838H72.9998H72.9996Z" fill="#E26D26"></path>
<path d="M74.0487 20.6003L73.6651 22.5675H73.3398L73.7212 20.6003H74.0485H74.0487ZM74.191 19.8691L74.129 20.1819H73.8018L73.8637 19.8691H74.191Z" fill="#E26D26"></path>
<path d="M74.749 21.4654L74.5343 22.5674H74.207L74.5087 21.0199C74.5212 20.9632 74.5326 20.8996 74.5443 20.829C74.5559 20.7585 74.5676 20.6824 74.5798 20.5999H74.8893C74.8893 20.6085 74.8862 20.6335 74.8798 20.6754C74.8737 20.7174 74.867 20.7624 74.859 20.8121C74.8512 20.8613 74.8445 20.9027 74.8381 20.9363H74.8437C74.9445 20.7971 75.0451 20.7002 75.1468 20.6465C75.2479 20.5924 75.3682 20.5654 75.5073 20.5654C75.687 20.5654 75.8218 20.6099 75.9118 20.6982C76.0023 20.7871 76.0476 20.9146 76.0476 21.0818C76.0476 21.1207 76.0446 21.1652 76.0382 21.2146C76.0321 21.2646 76.0223 21.3196 76.0093 21.3802L75.7784 22.5674H75.4495L75.6787 21.3946C75.7004 21.2865 75.7112 21.1957 75.7112 21.1218C75.7112 20.9196 75.6029 20.8179 75.3859 20.8179C75.284 20.8179 75.1895 20.8443 75.1029 20.8974C75.0162 20.9499 74.9423 21.0246 74.8809 21.121C74.8198 21.2174 74.7759 21.3321 74.7495 21.4654H74.749Z" fill="#E26D26"></path>
<path d="M76.7195 21.6534C76.7122 21.6947 76.7067 21.7631 76.7028 21.8589C76.7028 22.0197 76.7433 22.1436 76.8239 22.2297C76.9045 22.3156 77.0259 22.3586 77.1884 22.3586C77.3056 22.3586 77.4125 22.3297 77.5084 22.2717C77.6039 22.2134 77.6786 22.1339 77.732 22.0336L77.9828 22.1481C77.8945 22.307 77.7817 22.4225 77.6456 22.4956C77.5089 22.5681 77.3439 22.6045 77.15 22.6045C76.9064 22.6045 76.717 22.537 76.5817 22.4017C76.4464 22.267 76.3789 22.0764 76.3789 21.832C76.3789 21.5875 76.422 21.372 76.5081 21.1756C76.5939 20.9828 76.715 20.8325 76.8717 20.7253C77.0278 20.6181 77.2036 20.5645 77.3986 20.5645C77.6475 20.5645 77.8409 20.6267 77.9786 20.7517C78.117 20.8764 78.1861 21.0531 78.1861 21.2808C78.1861 21.4067 78.1717 21.5309 78.1425 21.6534H76.7189H76.7195ZM76.7631 21.4025H77.8539L77.8611 21.2714C77.8611 21.1211 77.8223 21.0058 77.7442 20.9261C77.6656 20.8458 77.5534 20.8061 77.4067 20.8061C77.2445 20.8061 77.1075 20.8578 76.997 20.9614C76.8861 21.065 76.8078 21.212 76.7631 21.4022V21.4025Z" fill="#E26D26"></path>
<path d="M79.0922 22.6058C78.9019 22.6058 78.7533 22.5486 78.6474 22.4339C78.5411 22.3194 78.4883 22.1619 78.4883 21.9619C78.4883 21.7175 78.5258 21.4783 78.6011 21.2458C78.6761 21.0142 78.7811 20.843 78.9155 20.7319C79.0502 20.6211 79.2225 20.5655 79.4319 20.5655C79.5813 20.5655 79.7025 20.5972 79.7969 20.6603C79.8908 20.723 79.9569 20.8117 79.9958 20.9258H80.0047C80.0133 20.8758 80.0216 20.8269 80.0302 20.7778C80.0389 20.7286 80.0472 20.6797 80.0558 20.6314L80.2047 19.8691H80.5319L80.0864 22.1622C80.0694 22.2472 80.0552 22.3236 80.0436 22.3914C80.0319 22.4592 80.023 22.5181 80.0172 22.5675H79.7044C79.7044 22.5056 79.7172 22.4086 79.7427 22.2769H79.7339C79.645 22.3917 79.5522 22.4753 79.4536 22.5278C79.3555 22.5797 79.235 22.6058 79.0922 22.6058ZM79.1866 22.3528C79.4191 22.3528 79.5947 22.2542 79.7119 22.0567C79.7519 21.9914 79.7861 21.9133 79.8147 21.8228C79.8433 21.7328 79.865 21.64 79.8805 21.5458C79.8955 21.4511 79.903 21.3653 79.903 21.2878C79.903 21.1364 79.8647 21.018 79.7875 20.9339C79.7105 20.8497 79.6036 20.8075 79.4666 20.8075C79.3188 20.8075 79.2019 20.8511 79.1158 20.9386C79.0586 20.9967 79.0086 21.0819 78.9655 21.1947C78.9227 21.3078 78.8891 21.428 78.8658 21.5558C78.8425 21.6839 78.8302 21.8 78.8302 21.9042C78.8302 22.0531 78.8588 22.1653 78.9155 22.2406C78.9727 22.3156 79.0627 22.3533 79.1866 22.3533V22.3528Z" fill="#E26D26"></path>
</svg>